<?xml version="1.0" standalone="no"?>
<!DOCTYPE svg PUBLIC "-//W3C//DTD SVG 20010904//EN"
 "http://www.w3.org/TR/2001/REC-SVG-20010904/DTD/svg10.dtd">
<svg version="1.0" xmlns="http://www.w3.org/2000/svg"
 width="978.000000pt" height="978.000000pt" viewBox="0 0 978.000000 978.000000"
 preserveAspectRatio="xMidYMid meet">
<metadata>
Created by potrace 1.11, written by Peter Selinger 2001-2013
</metadata>
<g transform="translate(0.000000,978.000000) scale(0.100000,-0.100000)"
fill="#000000" stroke="none">
<path d="M2015 9604 c-142 -32 -237 -114 -280 -239 -17 -49 -22 -136 -10 -185
4 -21 61 -316 79 -416 3 -16 10 -54 16 -84 6 -30 12 -66 15 -80 8 -40 44 -241
76 -430 37 -215 33 -193 64 -380 25 -151 29 -179 40 -257 3 -21 10 -67 16
-103 6 -36 12 -76 14 -90 21 -159 27 -199 30 -220 2 -14 7 -45 10 -70 3 -25
11 -97 19 -160 8 -63 18 -142 21 -175 4 -33 8 -71 10 -85 2 -14 7 -52 10 -85
6 -61 11 -112 20 -187 4 -40 9 -86 20 -218 3 -30 7 -73 10 -95 2 -22 7 -80 11
-130 3 -49 8 -106 9 -125 2 -19 6 -93 10 -165 4 -71 9 -132 11 -135 3 -2 31
-5 63 -5 48 -1 64 -6 97 -31 21 -16 58 -42 81 -56 l41 -27 27 24 c14 14 30 25
35 25 4 0 10 6 12 12 3 9 34 13 101 13 70 1 107 6 136 20 23 10 41 22 41 27 0
4 6 8 13 8 6 0 20 12 30 26 16 22 18 37 12 117 -12 181 -19 270 -30 397 -3 30
-7 75 -9 100 -11 125 -18 197 -21 220 -2 14 -6 54 -10 90 -3 36 -8 81 -10 100
-2 19 -7 60 -10 90 -3 30 -8 71 -10 90 -6 47 -13 104 -20 170 -4 30 -8 66 -10
80 -4 25 -23 168 -31 225 -17 134 -40 293 -49 345 -2 14 -7 48 -10 75 -3 28
-8 57 -10 65 -3 8 -7 32 -9 52 -3 21 -8 53 -11 70 -4 18 -8 44 -10 58 -5 39
-24 162 -30 193 -9 50 -22 125 -29 167 -2 14 -7 41 -10 60 -3 19 -8 46 -10 60
-7 46 -37 214 -66 370 -16 85 -32 169 -35 186 -7 45 -61 326 -80 419 -25 125
-62 187 -141 238 -68 44 -166 61 -249 41z"/>
<path d="M7337 8640 c-119 -38 -213 -142 -246 -272 -16 -60 -16 -78 -6 -128
20 -95 72 -163 157 -206 101 -51 370 -148 550 -199 l57 -16 -4 -52 c-14 -157
-42 -436 -50 -497 -3 -19 -7 -57 -10 -85 -3 -27 -7 -66 -10 -85 -2 -19 -7 -57
-10 -85 -6 -46 -9 -74 -20 -145 -2 -14 -6 -45 -10 -70 -3 -25 -8 -56 -10 -70
-2 -14 -7 -45 -10 -70 -13 -97 -72 -461 -89 -546 -2 -12 -7 -39 -10 -60 -4
-22 -8 -46 -11 -54 -25 -85 -30 -208 -10 -260 9 -25 19 -54 22 -64 15 -48 97
-127 165 -159 176 -84 363 -33 442 119 14 27 27 60 30 74 35 182 99 537 111
625 3 22 10 63 15 90 10 55 46 303 55 375 3 25 10 77 15 115 5 39 12 93 15
120 3 28 8 61 10 75 2 14 7 57 10 95 4 39 8 77 10 85 2 8 7 49 11 90 3 41 8
86 9 100 2 14 6 61 10 105 3 44 8 87 11 96 4 14 33 15 232 15 225 -1 353 6
424 23 162 38 270 180 270 356 0 106 -35 189 -105 256 -53 50 -157 79 -248 70
-137 -14 -616 -4 -723 15 -11 2 -37 5 -56 8 -186 23 -485 104 -670 181 -139
59 -222 68 -323 35z"/>
<path d="M4961 8573 c-151 -31 -248 -141 -252 -288 -1 -22 2 -105 6 -185 14
-258 6 -546 -20 -735 -2 -16 -7 -52 -10 -80 -3 -27 -8 -61 -11 -75 -3 -13 -7
-38 -9 -55 -3 -16 -12 -64 -20 -105 -9 -41 -18 -84 -21 -96 -9 -46 -67 -233
-91 -294 -95 -237 -216 -358 -365 -362 -90 -2 -142 28 -193 116 -38 66 -71
170 -89 281 -14 93 -18 128 -31 283 -12 135 -23 346 -40 732 -15 334 -24 391
-70 462 -128 194 -428 217 -570 44 -45 -55 -72 -140 -69 -221 1 -54 5 -160 19
-545 6 -158 14 -324 20 -390 8 -99 17 -194 21 -230 3 -19 7 -53 10 -75 36
-292 110 -534 217 -708 40 -64 43 -67 72 -61 16 4 32 10 35 14 3 3 30 15 60
26 30 10 58 23 61 27 3 5 10 8 15 8 5 -1 32 6 60 14 29 8 66 16 83 18 17 2 34
7 38 11 10 9 333 6 333 -4 0 -4 15 -8 33 -9 64 -3 87 -6 87 -12 0 -4 14 -9 30
-12 44 -9 54 -12 68 -20 6 -5 17 -5 22 -2 6 3 10 1 10 -4 0 -6 9 -11 19 -11
11 0 23 -4 26 -10 3 -5 13 -10 21 -10 8 0 26 -8 41 -17 14 -10 32 -18 39 -19
7 -1 27 -12 43 -23 16 -12 34 -21 40 -21 6 0 11 -4 11 -10 0 -5 6 -10 13 -10
7 0 41 -21 76 -46 l62 -45 37 33 c190 170 343 441 440 779 52 181 107 463 118
601 3 40 7 79 10 86 28 89 24 877 -4 992 -40 156 -160 254 -337 273 -16 2 -59
-3 -94 -10z"/>
<path d="M6668 8505 c-2 -1 -43 -5 -93 -8 -79 -6 -115 -11 -224 -32 -88 -17
-262 -78 -303 -107 -16 -11 -28 -17 -28 -13 0 9 -116 -71 -180 -124 -30 -25
-73 -67 -95 -93 -22 -26 -46 -55 -54 -63 -66 -76 -154 -279 -180 -415 -17 -94
-6 -282 23 -385 60 -210 157 -345 412 -570 168 -149 252 -242 298 -331 39 -75
38 -103 -2 -127 -19 -11 -52 -22 -75 -26 -44 -6 -259 -6 -492 0 -124 3 -148 1
-210 -19 -127 -42 -210 -124 -240 -238 -18 -68 -19 -115 -4 -167 8 -31 14 -37
30 -32 10 4 29 8 41 11 13 2 34 7 48 10 14 3 33 7 43 7 9 1 17 4 17 7 0 3 10
7 23 7 12 1 42 7 67 13 25 6 54 14 65 16 11 2 31 6 45 10 14 3 39 7 55 10 17
3 44 9 60 14 17 5 48 12 70 16 49 8 70 12 70 14 0 3 58 8 180 16 185 12 595 8
595 -6 0 -3 12 -5 28 -6 28 -1 60 -6 151 -24 29 -6 54 -10 55 -8 40 67 78 167
92 236 2 12 6 34 9 50 7 31 7 163 1 207 -37 270 -148 455 -416 694 -217 194
-313 305 -347 401 -36 102 8 189 131 259 102 59 203 87 336 96 46 2 107 11
135 20 139 40 229 170 229 330 -1 88 -25 162 -74 224 -44 56 -84 83 -155 105
-44 14 -130 27 -137 21z"/>
<path d="M3844 6000 c-12 -5 -34 -11 -50 -13 -48 -9 -129 -37 -209 -73 -22
-10 -46 -19 -54 -20 -7 -2 -30 -16 -50 -33 -20 -17 -63 -50 -96 -73 -33 -23
-62 -44 -65 -47 -3 -4 -21 -19 -40 -35 -31 -25 -118 -104 -244 -219 -93 -86
-216 -165 -216 -140 0 5 -4 2 -9 -6 -7 -10 -13 -11 -30 -2 -16 9 -21 9 -21 0
0 -8 -4 -8 -13 -1 -18 15 -82 7 -115 -14 -15 -10 -42 -33 -59 -51 l-33 -33
-37 18 c-21 9 -40 20 -43 23 -3 4 -15 9 -27 13 -13 4 -23 12 -23 17 0 5 -6 9
-13 9 -8 0 -27 11 -43 26 -43 38 -64 48 -64 30 0 -54 123 -194 192 -217 34
-11 46 -10 91 6 29 10 54 21 57 25 3 3 22 16 43 29 34 21 46 23 115 17 42 -3
94 -8 115 -11 20 -3 52 -7 70 -9 17 -3 46 -7 62 -9 42 -7 135 -19 165 -22 14
-2 25 -4 25 -5 0 -1 20 -4 45 -6 25 -2 79 -6 120 -10 99 -9 320 -10 395 -1 76
9 87 11 161 35 183 60 288 49 405 -41 25 -18 52 -38 61 -43 42 -24 172 -163
225 -241 14 -21 29 -40 32 -43 9 -7 173 -256 197 -300 10 -19 25 -39 32 -43 6
-4 12 -12 12 -18 0 -5 5 -15 10 -22 6 -7 24 -28 40 -47 16 -19 30 -38 30 -42
0 -5 8 -16 18 -26 9 -10 35 -40 57 -67 22 -27 48 -58 58 -69 9 -12 37 -48 62
-81 25 -33 51 -67 58 -75 7 -8 27 -33 43 -55 16 -22 34 -45 39 -51 6 -6 39
-44 75 -85 87 -99 361 -372 435 -434 33 -27 68 -57 78 -66 18 -16 33 -24 98
-53 21 -9 59 -31 86 -49 69 -47 229 -128 237 -120 3 3 6 1 6 -5 0 -7 9 -12 19
-12 11 0 22 -4 25 -9 3 -4 27 -14 53 -21 27 -7 54 -17 61 -23 6 -5 12 -6 12
-2 0 4 6 3 13 -3 6 -6 15 -11 19 -11 37 -6 68 -15 68 -20 0 -3 10 -7 23 -8 24
-3 44 -7 67 -16 20 -7 59 -17 95 -23 17 -4 32 -9 35 -13 3 -3 16 -7 30 -8 14
-1 48 -6 75 -10 82 -13 530 -7 530 7 0 1 18 3 40 5 54 5 93 12 105 20 5 3 10
0 10 -7 0 -10 2 -10 9 1 5 7 15 11 22 9 8 -3 21 -2 30 3 9 5 31 11 49 14 18 3
41 10 51 16 11 5 19 7 19 4 0 -3 12 1 28 9 29 16 53 24 63 22 3 0 12 4 20 11
8 6 41 26 74 44 118 64 231 162 298 259 17 25 34 47 39 48 4 2 8 10 8 18 0 8
9 24 20 36 11 12 20 29 20 38 0 9 4 20 8 26 10 10 50 109 57 139 2 11 11 45
19 76 17 59 27 115 30 164 1 17 4 35 7 40 7 13 2 305 -6 365 -3 25 -8 59 -10
75 -4 32 -23 111 -33 135 -3 8 -6 17 -7 20 -18 72 -88 216 -146 303 -103 152
-264 319 -427 442 -7 6 -22 18 -33 28 -10 9 -22 17 -25 17 -3 0 -23 14 -44 30
-21 17 -43 30 -49 30 -6 0 -11 5 -11 10 0 6 -7 10 -15 10 -8 0 -15 5 -15 10 0
6 -4 10 -9 10 -11 0 -154 82 -162 93 -3 5 -9 8 -13 8 -3 -1 -37 13 -74 31 -37
18 -69 33 -72 34 -3 0 -18 7 -35 14 -16 7 -32 14 -35 14 -3 1 -11 5 -17 9 -7
5 -21 10 -30 12 -10 3 -45 14 -78 25 -32 11 -68 22 -80 25 -11 2 -45 11 -77
19 -31 8 -67 18 -80 20 -12 3 -63 15 -113 26 -118 27 -143 32 -185 36 -19 1
-35 4 -35 4 0 18 -488 14 -630 -6 -16 -2 -43 -6 -60 -8 -16 -2 -30 -5 -30 -6
0 -2 -9 -4 -20 -5 -18 -3 -39 -7 -103 -19 -12 -3 -27 -8 -33 -11 -6 -4 -23 -8
-37 -9 -37 -3 -146 -29 -152 -35 -3 -3 -16 -6 -30 -7 -28 -1 -31 -2 -180 -39
-58 -15 -113 -28 -123 -30 -29 -6 -60 -15 -89 -27 l-28 -10 18 -32 c9 -17 19
-33 22 -36 3 -3 17 -21 30 -40 13 -19 27 -37 30 -40 3 -3 13 -15 21 -27 16
-24 85 -107 112 -135 9 -10 17 -22 17 -28 0 -5 3 -10 8 -10 4 0 28 -26 54 -58
25 -31 54 -67 65 -79 35 -41 88 -106 94 -116 6 -9 177 -17 426 -20 68 -1 123
-5 123 -9 0 -4 13 -3 29 2 16 4 32 5 35 2 4 -3 23 -7 44 -8 70 -5 167 -14 192
-18 14 -3 48 -7 75 -11 87 -11 120 -17 135 -25 8 -4 17 -8 20 -7 9 1 115 -26
125 -32 6 -3 19 -7 30 -8 10 -2 22 -8 26 -14 3 -6 9 -10 13 -9 4 1 25 -5 46
-14 22 -9 41 -15 43 -14 1 2 19 -8 40 -20 20 -13 37 -20 37 -15 0 4 4 3 8 -2
4 -6 32 -23 62 -39 30 -16 93 -54 139 -85 46 -31 90 -60 99 -66 8 -5 27 -21
42 -35 15 -14 42 -39 61 -56 137 -124 180 -228 138 -329 -7 -16 -12 -33 -11
-37 1 -3 -5 -12 -13 -18 -8 -7 -15 -17 -15 -22 0 -23 -118 -121 -182 -152 -60
-29 -77 -33 -131 -30 -58 3 -109 10 -114 14 -4 3 -11 5 -58 15 -22 5 -43 10
-47 11 -5 1 -9 3 -10 4 -3 3 -43 10 -70 13 -10 1 -18 5 -18 9 0 4 -13 8 -30 8
-16 0 -30 4 -30 8 0 4 -11 9 -24 10 -22 1 -181 53 -221 72 -23 11 -78 33 -85
34 -22 5 -200 101 -200 108 0 5 -5 8 -12 6 -6 -2 -22 6 -36 19 -14 13 -31 23
-38 23 -7 0 -14 3 -16 8 -1 4 -23 23 -48 42 -25 19 -53 42 -63 50 -31 25 -147
140 -147 144 0 3 -10 15 -22 28 -13 13 -45 50 -73 82 -27 32 -63 73 -80 91
-16 17 -46 51 -65 74 -19 24 -42 50 -51 60 -9 9 -30 36 -48 60 -56 79 -142
173 -370 406 -268 273 -530 505 -571 505 -5 0 -10 3 -10 8 0 4 -10 12 -23 18
-12 6 -49 25 -82 41 -73 37 -149 70 -177 78 -5 2 -9 3 -10 5 -2 1 -10 3 -18 5
-8 2 -47 12 -87 23 -39 10 -79 17 -87 16 -9 -1 -16 2 -16 6 0 11 -238 11 -266
0z m-194 -284 c0 -7 -6 -18 -13 -24 -11 -9 -16 -78 -8 -114 3 -15 48 -23 105
-19 23 2 46 30 46 56 0 13 4 26 9 29 10 6 8 -48 -3 -81 -4 -13 -12 -24 -17
-24 -9 -2 -24 -5 -36 -9 -12 -3 -64 0 -95 6 -43 9 -57 91 -25 156 19 38 37 50
37 24z"/>
<path d="M2263 5161 c-7 -12 -12 -85 -13 -212 -1 -107 -3 -234 -5 -284 -5
-155 -15 -349 -20 -385 -2 -19 -7 -64 -10 -100 -3 -36 -8 -76 -10 -90 -3 -14
-7 -41 -9 -60 -21 -185 -104 -452 -189 -610 -65 -121 -115 -190 -202 -275
-105 -104 -119 -115 -190 -152 -151 -79 -290 -72 -390 19 -37 33 -77 108 -95
177 -12 47 -16 192 -5 251 23 138 99 321 218 525 40 69 196 305 208 315 9 7
35 68 49 114 16 50 6 147 -20 202 -78 160 -295 243 -464 177 -42 -17 -126 -71
-126 -82 0 -4 -10 -17 -23 -31 -34 -37 -163 -236 -264 -405 -31 -52 -163 -325
-163 -337 0 -8 -4 -18 -9 -23 -24 -26 -101 -316 -115 -434 -4 -30 -7 -95 -7
-145 1 -426 227 -800 583 -965 190 -88 420 -116 628 -76 26 5 34 7 107 25 65
16 190 68 257 107 85 49 216 144 217 157 1 6 2 49 4 96 7 203 22 287 76 439
17 47 32 91 33 96 16 61 160 356 178 363 4 2 8 9 8 15 0 7 18 36 40 65 22 29
40 55 40 57 0 3 8 13 18 24 9 10 27 31 39 47 23 32 97 110 200 215 44 45 66
75 68 95 2 16 6 61 10 99 3 39 8 86 10 105 12 112 19 318 20 560 l0 275 -27
-1 c-16 -1 -28 2 -28 5 0 3 -21 7 -47 9 -26 1 -58 4 -70 6 -13 3 -38 -6 -60
-21 -71 -49 -113 -62 -197 -61 -90 0 -132 19 -196 90 -20 21 -38 38 -40 38 -3
0 -10 -8 -17 -19z"/>
<path d="M4138 5108 c-19 -16 -57 -37 -78 -43 -3 -1 -32 -14 -65 -30 -33 -16
-63 -28 -67 -27 -5 1 -8 -2 -8 -8 0 -5 -5 -10 -11 -10 -26 0 -160 -101 -236
-178 -45 -47 -83 -89 -83 -94 0 -4 -9 -18 -20 -31 -23 -26 -48 -69 -83 -137
-12 -25 -25 -47 -28 -50 -11 -9 -66 -175 -74 -225 -2 -11 -4 -20 -5 -20 -5 0
-12 -82 -12 -150 -1 -76 5 -155 18 -220 3 -16 7 -34 8 -40 1 -5 5 -16 9 -22 5
-7 6 -13 3 -13 -3 0 10 -44 30 -97 20 -54 36 -104 37 -110 0 -7 4 -13 9 -13 5
0 7 -4 4 -9 -3 -5 1 -14 9 -21 8 -7 15 -17 15 -22 0 -12 47 -112 57 -122 5 -4
8 -11 8 -14 1 -10 56 -104 72 -122 175 -200 426 -445 488 -477 17 -9 32 -19
35 -22 9 -11 154 -96 156 -91 0 3 7 0 15 -6 29 -24 90 -54 109 -54 11 0 44
-13 73 -29 28 -16 70 -35 92 -41 22 -7 49 -19 61 -27 11 -7 23 -11 25 -8 3 2
45 -9 94 -26 49 -16 96 -31 104 -32 9 -1 21 -6 27 -9 6 -4 24 -10 40 -12 16
-3 59 -14 97 -25 37 -11 70 -20 72 -20 3 -1 6 -1 8 -2 7 -2 45 -11 62 -14 36
-7 59 -13 105 -26 25 -6 52 -13 60 -15 8 -1 30 -7 49 -13 19 -6 38 -8 42 -5 5
3 9 1 9 -4 0 -14 70 -32 145 -37 38 -3 72 -8 77 -11 5 -3 19 -7 31 -9 40 -6
80 -16 89 -21 5 -3 24 -8 41 -11 18 -3 38 -10 45 -15 6 -6 12 -8 12 -5 0 3 29
-3 65 -13 36 -10 65 -16 65 -13 0 3 6 1 13 -5 6 -5 28 -13 47 -17 19 -4 40
-10 45 -13 6 -4 18 -8 28 -9 41 -7 266 -90 277 -103 3 -3 25 -14 50 -25 68
-30 132 -100 179 -196 51 -102 53 -111 55 -224 3 -143 -22 -233 -82 -293 -46
-46 -147 -122 -162 -122 -5 0 -10 -4 -10 -9 0 -8 -21 -16 -65 -26 -5 -2 -48
-21 -95 -42 -47 -22 -96 -43 -110 -47 -14 -4 -34 -11 -45 -16 -16 -7 -60 -21
-117 -36 -5 -1 -9 -2 -10 -4 -2 -1 -10 -3 -18 -5 -8 -2 -44 -11 -80 -20 -85
-21 -100 -24 -130 -30 -14 -2 -47 -9 -75 -15 -48 -10 -74 -15 -140 -24 -16 -2
-30 -5 -30 -6 0 -1 -30 -3 -66 -5 -36 -1 -71 -5 -77 -9 -7 -4 -12 -2 -12 4 0
6 -5 8 -12 4 -7 -4 -55 -6 -108 -5 -52 2 -137 4 -187 5 -51 0 -93 3 -93 6 0 3
-24 6 -53 6 -81 2 -156 10 -163 17 -4 3 -15 2 -25 -3 -10 -6 -19 -6 -21 -1 -2
5 -28 12 -58 16 -66 8 -86 11 -122 19 -16 3 -40 8 -55 11 -16 3 -37 7 -48 10
-11 2 -22 5 -25 5 -3 1 -36 10 -75 21 -38 11 -79 22 -90 24 -11 3 -51 16 -90
31 -38 14 -77 27 -86 29 -9 2 -25 8 -35 13 -25 13 -133 62 -139 62 -2 1 -32
16 -66 35 -33 19 -65 35 -70 35 -5 0 -9 5 -9 10 0 6 -7 10 -15 10 -8 0 -15 5
-15 10 0 6 -5 10 -11 10 -10 0 -99 57 -109 70 -3 4 -12 11 -21 16 -59 33 -304
272 -315 306 -3 10 -9 18 -13 18 -4 0 -16 16 -27 35 -10 19 -22 35 -27 35 -4
0 -5 4 -2 10 3 5 3 10 -2 10 -4 0 -21 26 -38 58 -16 31 -34 60 -40 64 -5 4 -6
8 -2 8 5 0 0 16 -12 36 -12 19 -21 39 -21 44 0 5 -5 21 -12 37 -6 15 -12 31
-13 36 -2 4 -3 8 -5 10 -1 1 -3 9 -5 17 -2 8 -13 49 -24 90 -34 127 -42 185
-45 315 -4 172 46 363 126 478 11 15 16 27 13 27 -4 0 0 7 7 15 20 22 31 37
58 75 32 46 44 60 180 201 63 66 118 127 121 137 6 15 -14 70 -30 82 -4 3 -15
21 -24 40 -10 19 -28 54 -41 77 -13 23 -21 44 -18 47 3 4 0 6 -7 6 -7 0 -9 5
-6 10 3 6 2 10 -3 10 -9 0 -35 70 -35 95 0 8 -3 15 -7 15 -9 0 -5 359 5 423
l7 48 -38 -26 c-22 -14 -47 -31 -58 -38 -79 -52 -176 -138 -330 -293 -160
-159 -186 -188 -226 -244 -13 -19 -32 -44 -42 -54 -10 -11 -18 -26 -18 -33 0
-7 -4 -13 -8 -13 -5 0 -17 -16 -28 -35 -10 -19 -23 -35 -28 -35 -5 0 -6 -3 -3
-6 4 -4 -2 -19 -12 -33 -41 -58 -181 -383 -181 -421 0 -5 -4 -10 -9 -10 -5 0
-8 -8 -7 -17 2 -10 0 -25 -5 -33 -33 -67 -51 -215 -53 -437 -1 -75 -5 -123
-11 -123 -7 0 -7 -3 0 -8 6 -4 10 -20 10 -37 0 -16 -4 -33 -10 -37 -7 -5 -7
-8 0 -8 6 0 11 -27 12 -60 2 -34 5 -73 8 -87 13 -75 27 -140 32 -153 3 -8 7
-26 9 -40 1 -14 12 -59 24 -100 11 -41 23 -84 25 -96 9 -38 111 -273 124 -284
3 -3 7 -11 9 -18 1 -7 20 -42 42 -78 22 -37 40 -68 40 -70 0 -7 127 -184 165
-230 92 -112 247 -271 314 -323 19 -14 44 -35 56 -46 26 -24 46 -39 110 -85
28 -19 55 -38 60 -43 6 -4 39 -26 75 -49 36 -23 67 -45 68 -50 2 -4 7 -6 12
-3 4 3 13 -2 20 -10 7 -8 19 -15 26 -15 8 0 14 -4 14 -9 0 -5 8 -12 18 -15 9
-4 31 -15 47 -24 54 -32 95 -52 98 -50 2 2 10 -2 18 -8 8 -6 35 -17 62 -24 26
-7 47 -16 47 -20 0 -4 19 -13 43 -20 23 -7 53 -16 67 -21 14 -4 50 -13 80 -19
61 -11 93 -18 130 -27 14 -3 33 -6 43 -7 9 0 17 -3 17 -6 0 -3 15 -6 33 -6 36
-2 132 -11 132 -14 0 0 29 -3 65 -5 36 -3 88 -7 115 -10 60 -5 218 -16 260
-18 17 -1 33 -6 37 -12 5 -6 8 -5 8 4 0 11 3 11 17 0 15 -12 16 -12 8 1 -7 13
-6 13 7 2 12 -9 18 -10 23 -2 4 7 11 8 19 1 18 -15 486 -13 486 2 0 8 3 7 9
-2 6 -10 13 -10 28 -3 11 6 25 7 33 2 8 -5 18 -6 24 -3 5 4 31 7 58 9 66 3
190 13 258 20 30 3 71 7 90 9 19 2 35 4 35 5 0 1 16 3 35 5 19 2 67 9 105 15
39 7 77 13 85 14 8 2 25 6 37 10 12 4 30 8 40 10 16 4 78 25 128 46 19 8 54
21 65 25 3 1 18 7 33 13 16 7 33 12 38 12 5 0 9 5 9 11 0 5 4 8 9 4 5 -3 12
-1 16 5 3 5 15 10 26 10 10 0 19 5 19 12 0 6 3 9 6 5 3 -3 50 17 105 44 54 27
101 49 105 49 3 0 19 9 35 21 16 11 29 17 29 12 0 -4 4 -3 8 2 7 10 40 30 102
62 40 20 30 13 140 99 146 114 363 345 387 411 3 10 15 31 26 46 10 15 20 33
21 40 1 7 19 46 40 87 20 41 37 76 37 77 0 2 10 26 23 55 29 66 39 92 40 98 1
3 4 10 7 15 17 28 39 152 43 242 2 56 7 107 11 113 3 5 1 10 -5 10 -8 0 -8 6
0 20 8 14 8 26 0 40 -8 14 -8 20 0 20 6 0 8 5 4 12 -4 6 -9 27 -11 47 -3 32
-76 198 -92 211 -3 3 -22 25 -41 50 -51 66 -61 78 -102 118 -46 47 -81 77 -90
77 -3 0 -10 3 -14 8 -4 4 -14 7 -23 7 -9 0 -43 21 -76 46 -58 43 -135 89 -145
85 -9 -3 -70 33 -70 42 0 4 -4 6 -9 3 -4 -3 -26 3 -47 13 -32 15 -119 44 -169
56 -5 1 -17 5 -25 8 -12 5 -103 29 -200 53 -8 2 -44 11 -80 20 -36 9 -73 16
-82 16 -10 0 -20 4 -23 9 -4 5 -10 7 -14 5 -4 -3 -23 -1 -42 4 -19 5 -47 12
-64 14 -38 7 -50 10 -165 36 -119 27 -124 28 -130 31 -3 1 -9 3 -15 4 -5 1
-17 4 -25 7 -16 6 -125 37 -151 43 -9 2 -39 11 -65 20 -27 9 -56 18 -64 20 -8
2 -32 11 -52 19 -21 9 -38 14 -38 11 0 -3 -12 3 -27 12 -15 10 -27 17 -28 15
0 -4 -30 7 -115 43 -36 15 -81 34 -100 43 -19 8 -35 13 -35 11 0 -3 -94 49
-125 71 -14 9 -33 20 -42 23 -10 4 -18 10 -18 16 0 5 -8 11 -17 15 -26 8 -69
37 -104 69 -10 9 -22 17 -25 17 -3 0 -28 18 -54 40 -26 22 -52 40 -58 40 -6 0
-12 3 -14 8 -1 4 -30 29 -63 57 -86 71 -185 174 -185 191 0 9 -14 36 -31 60
-17 25 -32 51 -33 57 -2 7 -8 25 -15 41 -12 29 -30 102 -36 146 -2 14 -5 25
-6 25 -1 0 -3 39 -5 87 -5 159 41 262 186 413 l49 51 -17 34 c-9 19 -20 37
-24 38 -4 2 -8 10 -8 18 0 8 -4 14 -8 14 -4 0 -16 15 -27 33 -25 42 -277 293
-333 331 -55 37 -146 44 -184 14z"/>
<path d="M5665 4840 c-7 -11 68 -103 170 -209 103 -106 144 -139 186 -146 19
-3 52 -11 74 -16 68 -18 79 -21 98 -21 9 1 17 -3 17 -7 0 -5 12 -11 28 -14 45
-9 56 -12 70 -20 6 -5 12 -6 12 -3 0 3 19 -2 43 -10 23 -9 53 -18 66 -20 13
-3 32 -9 43 -15 10 -5 18 -7 18 -4 0 2 24 -5 53 -16 28 -11 53 -20 54 -20 11
2 63 -13 63 -19 0 -3 6 -7 13 -7 17 0 220 -64 232 -73 6 -5 13 -9 18 -9 22 -2
64 -15 75 -24 6 -5 12 -7 12 -4 0 3 30 -6 68 -20 37 -14 79 -28 93 -33 30 -9
86 -33 142 -61 22 -10 46 -19 56 -19 16 0 71 54 71 71 0 4 6 12 13 16 34 20
26 42 -30 87 -31 25 -68 51 -82 58 -14 7 -28 16 -31 19 -3 3 -30 19 -60 35
-30 15 -70 39 -87 52 -18 14 -33 22 -33 19 0 -3 -27 10 -61 29 -33 18 -67 34
-74 34 -7 0 -15 3 -17 8 -1 4 -37 23 -78 42 -41 19 -78 39 -81 43 -3 5 -10 8
-15 8 -15 -1 -74 23 -74 30 0 4 -10 9 -22 12 -27 6 -104 33 -133 47 -11 5 -49
15 -85 23 -36 8 -103 26 -150 40 -100 29 -165 46 -200 52 -65 13 -77 15 -100
21 -14 3 -42 7 -62 9 -20 2 -46 9 -58 15 -14 7 -20 8 -20 0 0 -7 -6 -8 -17 -1
-33 17 -210 34 -218 21z"/>
<path d="M4724 4512 c-105 -101 -190 -314 -153 -384 10 -18 18 -20 102 -15 51
3 99 8 107 11 8 3 31 7 51 10 20 3 48 10 62 15 14 5 27 8 30 5 2 -2 10 2 17
11 7 8 21 15 31 15 11 0 19 4 19 10 0 5 7 7 17 3 14 -6 14 -3 -3 25 -10 18
-22 32 -26 32 -4 0 -8 7 -8 15 0 7 -6 18 -13 22 -7 4 -26 26 -42 48 -17 22
-33 42 -36 45 -3 3 -31 42 -61 87 l-55 83 -39 -38z"/>
<path d="M8370 3422 c-14 -20 -33 -46 -42 -56 -10 -11 -18 -23 -18 -27 0 -4
-6 -14 -13 -21 -6 -7 -21 -29 -31 -49 -17 -33 -18 -41 -6 -85 7 -27 16 -53 19
-59 3 -5 6 -16 7 -25 1 -8 5 -28 7 -45 3 -16 9 -48 12 -70 11 -61 12 -136 3
-180 -9 -41 -38 -116 -49 -125 -3 -3 -11 -15 -18 -28 -13 -24 -111 -142 -168
-201 -18 -19 -33 -38 -33 -43 0 -4 -7 -8 -15 -8 -8 0 -15 -4 -15 -10 0 -10 -9
-22 -62 -83 -15 -18 -28 -38 -28 -44 0 -7 -4 -13 -8 -13 -9 0 -40 -66 -48
-102 -11 -47 -13 -138 -3 -143 5 -4 7 -10 4 -15 -11 -18 32 -80 54 -80 6 0 11
-4 11 -9 0 -20 136 -47 143 -28 2 6 -10 23 -25 39 -38 39 -78 121 -80 163 -1
23 8 45 26 69 25 33 127 126 225 206 114 92 141 117 209 188 48 51 86 102 112
154 22 43 37 78 33 78 -3 0 0 7 7 15 7 8 9 15 5 15 -4 0 -3 6 2 13 15 18 14
248 0 266 -10 12 -9 13 1 7 11 -6 11 -4 3 10 -5 11 -17 44 -26 74 -29 95 -131
277 -161 287 -5 1 -20 -14 -34 -35z"/>
</g>
</svg>
